<?xml version="1.0" standalone="no"?>
<!DOCTYPE svg PUBLIC "-//W3C//DTD SVG 20010904//EN"
 "http://www.w3.org/TR/2001/REC-SVG-20010904/DTD/svg10.dtd">
<svg version="1.0" xmlns="http://www.w3.org/2000/svg"
 width="512.000000pt" height="512.000000pt" viewBox="0 0 512.000000 512.000000"
 preserveAspectRatio="xMidYMid meet">
<metadata>
Created by potrace 1.11, written by Peter Selinger 2001-2013
</metadata>
<g transform="translate(0.000000,512.000000) scale(0.100000,-0.100000)"
fill="#000000" stroke="none">
<path d="M2310 5115 c-8 -2 -58 -9 -110 -16 -110 -14 -301 -57 -412 -93 -83
-27 -249 -91 -276 -106 -9 -5 -55 -28 -102 -50 -128 -62 -278 -154 -398 -244
-96 -73 -324 -288 -413 -391 -189 -220 -390 -583 -474 -855 -9 -30 -23 -72
-31 -93 -8 -20 -13 -41 -13 -45 1 -4 0 -9 -1 -12 -1 -3 -3 -12 -5 -20 -1 -8
-8 -35 -15 -59 -6 -25 -13 -56 -15 -70 -2 -14 -5 -28 -6 -31 -1 -3 -3 -9 -4
-15 0 -5 -8 -48 -16 -95 -19 -113 -20 -599 -1 -720 11 -71 55 -281 66 -315 2
-5 4 -13 5 -18 0 -4 7 -23 15 -42 8 -19 12 -35 9 -35 -3 0 1 -7 8 -17 8 -9 13
-18 11 -20 -4 -5 24 -92 56 -168 65 -156 228 -453 253 -463 5 -2 9 -8 9 -12 0
-24 168 -229 279 -340 142 -142 181 -177 266 -240 33 -25 62 -48 65 -51 6 -6
130 -89 134 -89 2 0 40 -22 86 -50 46 -27 89 -50 97 -50 7 0 13 -4 13 -10 0
-5 5 -10 10 -10 6 0 41 -14 78 -32 37 -18 69 -32 72 -33 3 -1 22 -9 43 -18 58
-25 176 -67 232 -83 115 -32 294 -72 350 -79 32 -4 68 -9 80 -12 11 -3 131 -8
266 -10 187 -3 274 0 365 13 65 9 126 18 134 21 8 3 24 7 35 9 140 21 397 104
579 188 43 20 82 36 87 36 5 0 9 5 9 10 0 6 5 10 12 10 20 0 279 155 286 172
2 4 10 8 17 8 7 0 15 3 17 8 2 4 30 27 63 52 86 63 124 98 267 241 269 270
474 606 599 983 40 122 87 301 95 366 3 19 11 76 19 125 13 87 16 570 3 620
-3 11 -9 43 -12 70 -13 89 -17 108 -46 227 -48 192 -119 391 -184 512 -14 27
-26 55 -26 62 0 7 -3 14 -7 16 -5 2 -23 32 -42 67 -48 91 -161 261 -241 362
-73 92 -339 348 -442 425 -222 166 -483 302 -757 394 -71 24 -328 88 -351 88
-8 -1 -42 5 -75 12 -53 12 -570 24 -615 15z"/>
</g>
</svg>
